# xmcd
#
# Track frame offsets: 
#        182
#        9825
#        19560
#        29685
#        41280
#        51850
#        63525
#        72910
#        84577
#        94795
#        104482
#        115450
#        125525
#        136227
#        145897
#        156332
#        165887
#        176602
#        187892
#        199642
#
# Disc length: 2794 seconds
#
# Revision: 0
# Processed by: cddbd v1.5.2PL0 Copyright (c) Steve Scherf et al.
# Submitted via: ExactAudioCopy v1.3
#
DISCID=0a0ae814
DTITLE=Don Bryant - Comin' On Strong
DYEAR=1992
DGENRE=Soul
TTITLE0=Don't Turn Your Back On Me
TTITLE1=Star Of Love
TTITLE2=I'll Do The Rest
TTITLE3=The Lonely Soldier
TTITLE4=The Call Of Distress
TTITLE5=Is That Asking Too Much?
TTITLE6=I'll Go Crazy
TTITLE7=It's So Lonely Being Me
TTITLE8=Been So Long
TTITLE9=I Will Be True
TTITLE10=I Like It Like That
TTITLE11=My Baby
TTITLE12=Everything Is Gonna Be Alright
TTITLE13=The Glory Of Love
TTITLE14=Coming On Strong
TTITLE15=Can't Hide the Hurt
TTITLE16=There Is Something on Your Mind, Pt. 1
TTITLE17=There Is Something on Your Mind, Pt. 2
TTITLE18=Shop Around
TTITLE19=What Are You Doing to My World?
EXTD=
EXTT0=
EXTT1=
EXTT2=
EXTT3=
EXTT4=
EXTT5=
EXTT6=
EXTT7=
EXTT8=
EXTT9=
EXTT10=
EXTT11=
EXTT12=
EXTT13=
EXTT14=
EXTT15=
EXTT16=
EXTT17=
EXTT18=
EXTT19=
PLAYORDER=
